<?xml version="1.0" encoding="UTF-8"?>
<svg id="Layer_1" data-name="Layer 1" xmlns="http://www.w3.org/2000/svg" viewBox="0 0 547.02 235.92">
  <defs>
    <style>
      .cls-1 {
        fill: #c5a46e;
      }

      .cls-2 {
        fill: #c5a56f;
      }
    </style>
  </defs>
  <path class="cls-2" d="M389.01,225.63c3.3.93.68,6.73-2.95,6.05h-89.1c-13.32-6.18,8.57-5.9,12.92-8.17,6.12-3.19,7.67-14.19,8.5-20.5,2.54-19.35-.19-38.99-.39-58.39-24.48,8.9-46.15,24.83-69.81,35.19-10.59,4.63-40.55,12.35-46.52,19.48-2.76,3.29-4.29,8.12-7.18,11.82-20.21,25.85-64.47,28.83-93.97,21.02-3.5-.93-15.32-4.39-16.78-7.22-2.08-4-1.59-30.62-1.21-36.77.2-3.32,1.12-14.17,3.01-15.99,1.47-1.42,4-1.63,5.98-1.52-1.74,32.73,21.57,54.16,54.25,49.74,10.67-1.44,26.24-10.86,26.76-22.74-10.08,1.42-19.22.59-29.19-1.32-1.12-.21-18.68-3.41-14.81-6.68,99.33,15.67,171.35-92.7,271.99-64.99,1.42,1.45-.09,1.81-1.48,1.99-7.27.92-15.95.15-23.89,1.13-2.99.37-16.7,2.17-17.49,4.51-.32.96-1.06,11.58-1.18,13.82-.9,17.8-1.36,47.76,2.34,64.74,1.32,6.06,2.52,9.79,8.46,12.54.83.38,6.39,2.26,6.74,2.26,3.48,0,12.49-.71,15,0Z"/>
  <path class="cls-1" d="M195.52,52.63c.67-36.01-55.43-53.4-72.64-22.13-13.19,23.96,7.25,41.11,24.17,55.09,6.08,5.02,41.48,30,41.51,35.55.01,1.53-.66,1.66-1.75,2.3-3.03,1.77-12.51,3.58-16.49,4.51-7.29,1.7-20.33,4.67-27.42,4.58-7.7-.1-17.37-9.56-22.92-14.87-21.4-20.47-38.91-46.9-28.75-77.81C104.73-1.25,166.57-7.74,201.03,7.61l1.52,20.48c-.37,6.42.04,14.83-1.04,21.05-.48,2.77-3.52,3.58-6,3.5Z"/>
  <path class="cls-1" d="M437.51,45.13c-.38,1.77-4.06,5.81-5.98,4.49-2.23-1.54-.14-15.69-10.32-21.19-16.79-9.07-45.11-4.55-63.71-5.79v49c10.57.16,21.18-3.74,31.52-4.98,42.73-5.15,90.86,10.45,126.4,33.57,11.17,7.27,24.19,16.36,31.6,27.39-32.29-17.07-66.18-34.38-103.14-38.85-114.39-13.85-207.46,89.08-320.87,77.87-40-3.96-77.83-23.15-107.98-49.02-5.02-4.3-12.33-10.27-15.04-15.95,28.6,17.27,56.26,33.17,89.32,40.67,73.66,16.71,137.82-19.1,202.51-47.87,9.21-4.09,19.18-6.87,27.68-12.32V22.63h-51.5c-1.88,0-9.22,1.8-11.5,2.5-5.5,1.68-10.19,4.98-12.82,10.18-3.36,6.63-.32,12.21-10.18,10.32,1.53-10.73,2.82-21.62,5.31-32.18.57-2.43,2.32-12.14,4.32-12.73,1.45-.43,13.64,3.45,16.99,3.8,4.27.45,8.59-.13,12.87.13,42.56,2.61,100.98,5.09,142.89.87,2.75-.28,21.62-5.59,21.62-1.38v41Z"/>
</svg>